<?xml version="1.0" standalone="no"?>
<!DOCTYPE svg PUBLIC "-//W3C//DTD SVG 20010904//EN"
 "http://www.w3.org/TR/2001/REC-SVG-20010904/DTD/svg10.dtd">
<svg version="1.0" xmlns="http://www.w3.org/2000/svg"
 width="552.000000pt" height="552.000000pt" viewBox="0 0 552.000000 552.000000"
 preserveAspectRatio="xMidYMid meet">
<metadata>
Created by potrace 1.14, written by Peter Selinger 2001-2017
</metadata>
<g transform="translate(0.000000,552.000000) scale(0.100000,-0.100000)"
fill="#000000" stroke="none">
<path d="M2610 5214 c-78 -5 -259 -33 -365 -55 -432 -92 -849 -329 -1181 -670
-186 -192 -323 -386 -439 -623 -86 -176 -133 -304 -185 -506 -62 -238 -74
-339 -74 -630 0 -274 12 -387 69 -611 136 -538 463 -1032 899 -1356 55 -42
126 -90 156 -106 49 -28 61 -31 130 -29 300 11 573 136 719 329 66 87 145 246
173 348 20 70 22 105 22 280 1 178 -2 210 -23 290 -60 232 -202 401 -389 466
-132 46 -317 17 -440 -67 -60 -42 -172 -161 -172 -183 0 -8 -11 -29 -25 -47
-29 -38 -31 -50 -9 -58 14 -5 15 -4 5 8 -10 12 -9 19 8 37 l21 23 0 -30 c0
-52 -20 -102 -60 -150 -120 -145 -306 -164 -515 -52 -65 34 -71 42 -44 49 17
4 4 9 -48 18 -40 7 -75 16 -78 21 -3 5 23 24 57 44 35 19 97 65 138 102 146
130 217 162 335 151 66 -6 107 -22 161 -62 l30 -23 18 71 c10 40 24 82 32 94
13 21 12 22 -34 28 -77 9 -146 33 -191 65 -43 31 -49 61 -8 38 14 -9 62 -13
137 -12 113 0 119 1 290 58 156 51 186 58 280 63 112 5 202 -9 287 -47 23 -10
43 -15 43 -11 0 10 -175 180 -225 217 -70 53 -158 101 -225 124 -52 17 -82 21
-152 18 -49 -1 -88 0 -88 4 0 9 63 41 113 58 l38 12 -47 51 c-191 209 -259
265 -364 301 l-55 18 -52 -50 c-94 -92 -237 -107 -369 -39 -48 25 -132 105
-174 167 -32 47 -100 174 -100 187 0 2 32 3 71 3 40 0 131 10 203 21 154 26
219 19 294 -30 75 -49 132 -137 132 -206 0 -21 4 -22 44 -18 53 6 159 -25 229
-68 26 -16 48 -29 50 -29 1 0 2 57 3 128 1 133 11 192 60 330 14 39 30 72 35
72 5 0 6 -36 2 -87 -5 -49 -8 -146 -7 -218 1 -154 21 -237 82 -331 48 -74 97
-114 198 -160 195 -89 263 -126 326 -178 153 -127 299 -349 373 -569 13 -40
26 -65 29 -57 2 8 14 56 25 105 12 50 37 151 57 225 45 172 56 324 30 415 -25
87 -59 138 -156 240 -165 171 -222 257 -255 386 -23 86 -15 241 19 363 27 99
25 120 -21 162 -16 15 -49 37 -75 50 -42 21 -63 44 -40 44 29 -1 158 -42 187
-60 l37 -23 49 49 c28 27 64 77 81 112 17 34 35 62 41 62 25 0 -3 -103 -62
-231 -94 -200 -104 -236 -105 -359 -1 -98 1 -109 30 -170 18 -36 39 -74 47
-85 15 -19 15 -18 22 20 25 149 68 249 187 440 132 211 178 306 178 366 0 15
5 31 10 34 17 11 32 -47 27 -105 -7 -81 -38 -158 -121 -304 -129 -230 -161
-323 -161 -476 0 -94 3 -111 27 -160 15 -30 58 -91 94 -135 63 -75 111 -161
129 -230 4 -16 12 -71 19 -122 l11 -92 91 68 c159 121 204 185 467 666 195
358 213 390 223 390 50 0 -54 -297 -226 -641 -76 -153 -84 -175 -65 -170 65
16 184 27 390 36 147 6 252 15 290 25 33 9 71 19 85 22 l25 6 -23 -25 c-28
-31 -102 -72 -160 -89 l-43 -12 63 -34 c34 -18 88 -53 119 -77 l57 -45 27 39
c76 109 197 187 306 197 47 5 67 1 115 -21 56 -26 125 -82 145 -118 8 -14 1
-18 -47 -28 -30 -6 -90 -27 -132 -47 -152 -69 -177 -76 -261 -69 -137 11 -185
21 -243 53 -31 18 -99 46 -150 64 -177 62 -418 50 -592 -30 -123 -57 -240
-171 -319 -311 l-29 -53 23 7 c192 52 491 13 586 -76 38 -36 26 -10 -32 67
-65 85 -106 119 -157 129 -21 4 -38 11 -38 16 0 18 152 82 232 98 153 30 307
-15 408 -118 58 -59 85 -114 101 -201 10 -58 10 -72 -6 -112 -16 -44 -20 -47
-54 -48 -28 0 -32 -2 -16 -8 12 -5 -8 -7 -50 -5 -53 2 -60 1 -30 -4 77 -15
165 -73 291 -192 67 -63 120 -116 120 -117 -6 -8 -324 -34 -385 -32 -98 5
-180 43 -226 106 -16 23 -33 42 -37 42 -11 1 -10 -88 1 -126 14 -49 -4 -49
-28 0 -23 48 -43 141 -37 172 3 11 5 27 5 35 1 21 85 76 151 99 l55 20 -49 0
c-43 1 -56 7 -97 41 -26 22 -53 40 -59 40 -6 0 -27 8 -48 19 -92 46 -278 63
-405 36 -136 -29 -269 -130 -327 -250 -61 -124 -75 -206 -75 -450 0 -199 3
-229 24 -310 85 -324 288 -550 576 -644 109 -36 171 -48 295 -59 109 -10 107
-11 242 80 252 168 484 413 657 689 238 382 362 795 378 1259 20 587 -172
1172 -541 1644 -386 494 -937 811 -1546 891 -110 14 -386 25 -480 19z m-349
-267 c-19 -24 -100 -293 -137 -457 -41 -185 -74 -300 -86 -300 -41 0 -148 105
-179 176 -45 101 -44 220 2 320 31 66 139 171 218 213 133 70 220 92 182 48z
m1089 -7 c0 -5 -8 -14 -19 -19 -28 -16 -72 -121 -133 -321 -21 -70 -80 -200
-90 -200 -5 0 -8 -6 -8 -14 0 -8 -7 -16 -15 -20 -13 -5 -13 -1 0 31 8 19 15
46 15 60 0 13 4 22 9 19 5 -4 7 4 4 16 -4 22 -3 22 11 -2 13 -22 15 -23 14 -5
0 11 -3 34 -7 50 l-7 30 -16 -30 c-8 -16 -13 -36 -11 -42 4 -12 -9 -18 -30
-14 -5 1 -11 -8 -14 -19 -3 -11 -9 -17 -14 -14 -5 3 -9 -4 -9 -16 0 -12 -7
-28 -15 -36 -13 -14 -15 -13 -15 3 0 10 7 29 16 41 9 13 13 29 10 37 -3 8 -1
15 4 15 6 0 10 -5 10 -11 0 -5 5 -7 10 -4 6 3 8 18 5 33 l-5 27 11 -25 12 -25
6 30 c4 17 3 32 -1 33 -18 8 -7 23 12 17 14 -5 20 -2 20 9 0 9 -4 16 -10 16
-5 0 -10 7 -10 16 0 14 2 15 17 3 15 -12 16 -12 10 5 -9 22 1 59 12 51 5 -2 6
7 3 20 -2 15 0 25 7 25 6 0 11 -8 12 -17 0 -12 2 -13 6 -5 3 7 0 19 -7 26 -7
10 -8 16 0 21 5 3 10 1 10 -4 0 -6 5 -11 11 -11 8 0 8 4 -1 15 -9 11 -6 21 15
50 15 19 23 35 19 35 -5 0 -16 -10 -23 -22 -49 -77 -89 -148 -101 -178 -20
-52 -77 -140 -119 -183 -47 -50 -93 -73 -172 -87 -91 -17 -115 -6 -126 57 -4
26 -7 79 -5 118 6 182 159 349 374 405 80 21 318 29 318 10z m-800 -109 c0
-15 4 -31 9 -36 35 -38 59 -214 41 -301 -13 -59 -48 -144 -61 -144 -8 0 0 40
12 55 8 11 -2 36 -17 38 -5 1 -8 5 -6 10 1 4 -2 7 -6 7 -5 0 -14 -19 -21 -42
-7 -24 -23 -61 -34 -83 -30 -55 -129 -195 -138 -195 -5 0 -20 37 -35 83 -48
146 -36 289 34 394 44 67 205 252 214 247 4 -3 8 -18 8 -33z m976 -69 c63
-100 79 -170 71 -311 -10 -178 -65 -284 -191 -368 -43 -28 -169 -68 -191 -60
-7 3 -26 32 -41 63 -24 49 -28 71 -29 139 0 134 22 179 155 324 87 93 124 158
142 242 7 33 17 58 23 56 5 -2 33 -40 61 -85z m-1284 -149 c2 -39 -2 -72 -9
-82 -6 -8 -9 -31 -7 -51 3 -29 2 -27 -7 10 -7 26 -7 46 -2 47 5 2 8 35 7 73
-1 39 1 70 6 70 5 0 10 -30 12 -67z m1768 -31 c0 -4 -10 -25 -21 -47 -32 -59
-34 -132 -9 -279 36 -208 20 -289 -77 -395 l-50 -54 -44 29 c-53 36 -114 114
-134 173 -22 66 -20 188 6 258 25 68 92 166 146 213 78 69 183 127 183 102z
m-2480 -62 c13 -32 73 -90 167 -162 116 -89 173 -187 173 -300 0 -95 -67 -228
-115 -228 -39 0 -163 69 -215 120 -31 30 -63 76 -83 117 -29 62 -32 77 -32
163 0 84 4 108 38 208 21 61 42 112 47 112 4 0 13 -13 20 -30z m1460 -100 c0
-5 -2 -10 -4 -10 -3 0 -8 5 -11 10 -3 6 -1 10 4 10 6 0 11 -4 11 -10z m0 -50
c0 -5 -7 -10 -15 -10 -8 0 -15 5 -15 10 0 6 7 10 15 10 8 0 15 -4 15 -10z m45
-20 c4 -6 11 -8 16 -5 5 4 9 2 9 -4 0 -5 -4 -13 -10 -16 -5 -3 -10 -1 -10 4 0
6 -7 11 -15 11 -8 0 -15 5 -15 10 0 13 17 13 25 0z m-295 -35 c7 -9 8 -15 2
-15 -5 0 -12 7 -16 15 -3 8 -4 15 -2 15 2 0 9 -7 16 -15z m280 5 c0 -6 -12
-15 -27 -21 -16 -6 -36 -15 -45 -20 -10 -5 -35 -8 -55 -7 -38 1 -38 1 7 7 28
4 44 11 43 19 -2 7 8 12 27 12 17 0 30 5 30 10 0 6 5 10 10 10 6 0 10 -5 10
-10z m-1760 -175 c1 -63 66 -149 175 -230 161 -121 198 -194 176 -345 -7 -47
-18 -96 -24 -110 -12 -23 -16 -25 -77 -21 -147 7 -272 93 -330 224 -57 129
-44 286 40 482 16 38 23 46 30 35 6 -8 10 -24 10 -35z m3124 -92 c-63 -360
-135 -496 -294 -559 -49 -19 -74 -24 -81 -17 -6 6 -15 40 -22 77 -30 178 79
355 297 484 49 28 94 52 98 52 5 0 6 -17 2 -37z m-1990 1 c25 -4 46 -10 46
-15 0 -4 -20 -20 -44 -34 -52 -31 -80 -60 -71 -75 3 -6 1 -9 -6 -8 -8 2 -43
-57 -89 -149 -41 -83 -83 -160 -93 -171 -36 -39 -115 -73 -185 -79 l-68 -6
-19 44 c-15 33 -20 65 -20 129 1 74 4 91 29 138 92 167 297 256 520 226z
m1077 -104 c124 -49 192 -142 193 -265 l1 -70 -125 0 c-116 0 -129 2 -183 29
-33 16 -92 61 -140 105 -45 43 -102 92 -126 109 l-43 31 54 24 c49 22 125 49
173 61 39 10 142 -3 196 -24z m-1145 -206 c-4 -9 -9 -15 -11 -12 -3 3 -3 13 1
22 4 9 9 15 11 12 3 -3 3 -13 -1 -22z m796 -152 c8 -49 25 -83 83 -168 101
-147 100 -294 -3 -414 -29 -34 -30 -34 -58 -20 -48 25 -149 132 -175 185 -20
41 -24 65 -24 135 0 72 4 94 28 145 32 69 117 186 132 181 5 -1 13 -21 17 -44z
m1729 -87 c-56 -59 -77 -100 -116 -231 -15 -46 -35 -105 -46 -129 -40 -91
-127 -145 -234 -145 -51 0 -52 0 -74 46 -19 38 -22 57 -19 117 10 187 145 313
398 371 151 35 152 35 91 -29z m-2831 -30 c11 -13 10 -14 -4 -9 -9 3 -16 2
-16 -4 0 -17 65 -60 164 -108 99 -49 153 -92 183 -147 14 -25 18 -56 18 -144
0 -61 -3 -115 -7 -118 -10 -10 -179 40 -239 70 -106 54 -170 158 -168 273 2
85 22 187 37 185 6 -2 12 2 12 7 0 14 5 13 20 -5z m2258 -36 c47 -11 71 -29
39 -29 -24 0 -64 -54 -86 -115 -57 -156 -134 -224 -251 -225 -44 0 -180 67
-180 89 0 33 61 143 107 192 96 103 201 128 371 88z m-1742 -340 c10 -12 57
-47 104 -79 115 -78 135 -112 135 -235 0 -81 -3 -95 -28 -137 -15 -27 -30 -48
-32 -48 -3 0 -37 22 -77 49 -133 89 -168 143 -168 255 0 67 28 216 40 216 4 0
15 -10 26 -21z m-1650 -68 c14 -13 104 -40 160 -47 31 -4 93 0 160 11 132 21
214 15 281 -19 57 -28 113 -83 148 -142 61 -105 5 -231 -139 -311 -46 -25 -60
-28 -151 -28 -95 0 -104 2 -178 38 -105 51 -174 122 -226 229 -33 69 -91 241
-91 270 0 11 24 10 36 -1z m-35 -359 c111 -44 193 -148 219 -276 12 -60 7
-144 -11 -177 -21 -40 -215 -32 -306 12 -109 54 -181 162 -222 334 -12 50 -26
98 -31 107 -6 10 -10 20 -10 24 0 3 69 4 153 2 128 -3 161 -8 208 -26z m3796
-42 c64 -28 243 -133 243 -142 0 -5 -10 -8 -23 -8 -13 0 -59 -23 -102 -50
-138 -87 -255 -116 -340 -84 -22 8 -47 17 -55 20 -42 14 -80 128 -80 241 l0
42 53 4 c114 10 255 -1 304 -23z m-237 -302 c0 -5 -9 -3 -20 4 -11 7 -20 16
-20 20 0 5 9 3 20 -4 11 -7 20 -16 20 -20z m-2369 -90 c72 -24 159 -108 159
-152 0 -13 -16 -33 -41 -51 -22 -16 -35 -31 -30 -33 12 -4 -4 -42 -23 -54 -6
-4 -7 -10 -3 -14 9 -9 37 15 37 32 0 8 5 14 10 14 6 0 10 7 10 15 0 8 5 15 10
15 27 0 -11 -74 -66 -128 -69 -68 -190 -97 -295 -72 -62 15 -229 95 -229 110
0 19 89 187 116 219 75 90 237 136 345 99z m1676 -20 c45 -21 83 -60 83 -85 0
-58 -96 -162 -190 -207 -87 -41 -213 -48 -307 -17 -48 15 -70 18 -95 10 -38
-10 -92 -12 -101 -2 -4 3 12 15 35 25 53 24 105 66 199 163 41 42 93 88 115
101 78 46 179 50 261 12z m-1527 -188 c0 -5 -5 -10 -11 -10 -5 0 -7 5 -4 10 3
6 8 10 11 10 2 0 4 -4 4 -10z"/>
<path d="M3256 4885 c-11 -8 -15 -15 -9 -15 6 0 16 7 23 15 16 19 11 19 -14 0z"/>
<path d="M3219 4843 c-13 -16 -12 -17 4 -4 9 7 17 15 17 17 0 8 -8 3 -21 -13z"/>
<path d="M3235 4820 c3 -5 8 -10 11 -10 2 0 4 5 4 10 0 6 -5 10 -11 10 -5 0
-7 -4 -4 -10z"/>
<path d="M3125 4635 c2 -11 7 -33 11 -49 l7 -29 19 22 c19 25 24 51 8 51 -5 0
-7 -6 -4 -14 12 -30 -17 -25 -31 6 -8 18 -13 24 -10 13z"/>
<path d="M2521 4484 c0 -11 3 -14 6 -6 3 7 2 16 -1 19 -3 4 -6 -2 -5 -13z"/>
<path d="M2088 1973 c7 -3 16 -2 19 1 4 3 -2 6 -13 5 -11 0 -14 -3 -6 -6z"/>
<path d="M1414 1968 c-29 -31 -29 -31 -2 -12 15 10 29 25 32 32 8 18 2 15 -30
-20z"/>
<path d="M1300 1885 c-17 -10 -20 -14 -9 -15 9 0 22 7 29 15 15 18 12 18 -20
0z"/>
<path d="M978 1853 c6 -2 18 -2 25 0 6 3 1 5 -13 5 -14 0 -19 -2 -12 -5z"/>
<path d="M1125 1851 l-100 -6 73 -6 c48 -4 90 -2 120 6 26 7 38 13 27 12 -11
0 -65 -3 -120 -6z"/>
<path d="M2748 814 c-3 -5 -11 -27 -18 -49 -22 -71 -92 -178 -156 -241 -79
-79 -179 -130 -294 -150 -46 -8 -85 -16 -87 -18 -4 -4 188 -42 297 -58 127
-18 451 -15 588 6 272 41 519 115 738 220 74 36 134 67 134 69 0 2 -24 -3 -52
-11 -39 -11 -106 -16 -258 -16 -226 -1 -267 6 -405 69 -78 36 -184 112 -209
150 -28 42 -35 28 -20 -37 34 -148 134 -280 259 -343 33 -16 62 -31 64 -32 2
-2 2 -6 -2 -9 -3 -4 -43 -1 -89 5 -215 31 -392 184 -467 403 -10 28 -20 48
-23 42z"/>
<path d="M2444 743 c-69 -69 -180 -128 -299 -159 -97 -26 -425 -26 -500 -1
-27 9 -51 14 -53 12 -13 -13 345 -167 480 -206 l77 -23 75 37 c131 66 244 210
276 351 6 27 9 49 8 50 -2 0 -31 -27 -64 -61z"/>
</g>
</svg>
